<svg xmlns="http://www.w3.org/2000/svg" version="1.1" xmlns:xlink="http://www.w3.org/1999/xlink" xmlns:svgjs="http://svgjs.dev/svgjs" width="100%" height="100%" viewBox="0 0 1000 600"><rect width="1000" height="600" x="0" y="0" fill="#0000"/><g><rect width="333.3333333333333" height="333.3333333333333" rx="13.333333333333334" ry="13.333333333333334" y="262.0986288093036" fill="#292826" transform="matrix(0.5211017172186643,0,0,0.5211017172186644,0,76.56967077045323)" x="239.87651062011716"/><path d="M400.63723801245857 492.144809256251L400.63723801245857 492.144809256251Q400.63723801245857 503.76529764318894 377.9977924021418 503.76529764318894L377.9977924021418 503.76529764318894Q373.07617379120336 503.76529764318894 372.201219371481 498.73430972978525Q371.29892262614226 493.7306641419978 371.29892262614226 486.2388669231249Q371.29892262614226 478.77441202986824 372.3926156507952 470.1889217863423Q373.48630867544824 461.6307738684327 375.236217514893 451.59614036724156L375.236217514893 451.59614036724156Q378.59932356570096 432.2924584821164 384.80603148060663 409.95377845357916Q390.985397069896 387.61509842504194 397.1100780079527 375.4204212001612L397.1100780079527 375.4204212001612Q384.69666217814137 376.1860063174183 372.50198495326055 379.84987795000575Q360.2799654027634 383.4864072569769 355.1669505125107 384.96289284025846Q350.05393562225805 386.43937842354 346.69082957145014 386.43937842354Q343.35506584625847 386.43937842354 343.35506584625847 384.2793346998503L343.35506584625847 384.2793346998503Q343.35506584625847 381.7091560919158 347.29236073500925 376.6781681785121Q351.22965562376 371.6745225907247 358.5027142377024 366.561507700472L358.5027142377024 366.561507700472Q377.0134686799541 353.9566955913464 399.65291429027087 353.7652993120321L399.65291429027087 353.7652993120321L464.42688367534396 354.3394881499749Q469.7312948449109 354.3394881499749 469.7312948449109 358.4681793180399L469.7312948449109 358.4681793180399Q469.7312948449109 359.6712416451582 468.17278228478045 362.7062397885702Q466.5869273990336 365.7685802575986 465.4112073975316 369.29574026210446L465.4112073975316 369.29574026210446Q462.8410287895971 376.40474492234887 454.6930157559324 376.40474492234887Q446.5176603966513 376.40474492234887 415.8122287295187 375.2016825952306L415.8122287295187 375.2016825952306Q415.0193012866453 383.8691998156055 412.6405189580251 397.3489663444535Q410.2890789550212 410.8560751989179 407.5275040677724 426.79665103323515L407.5275040677724 426.79665103323515Q400.82863429177286 467.5367162015588 400.63723801245857 492.144809256251Z " fill="white" transform="matrix(0.5211017172186643,0,0,0.5211017172186644,0,76.56967077045323)"/><path d="M746.4888614385383 432.53808975538084L746.4888614385383 432.53808975538084Q748.5837792733254 432.53808975538084 748.5837792733254 437.2904496583702L748.5837792733254 437.2904496583702Q748.5837792733254 447.2025145988909 739.3700202777337 456.49386314391916Q730.1368638947829 465.76581430158825 716.8690509411309 465.9209934004614L716.8690509411309 465.9209934004614Q707.5195102340252 465.9209934004614 695.2215666483303 458.5111914292698L695.2215666483303 458.5111914292698Q686.4345501746396 467.8607321363754 673.3025189325017 467.8607321363754L673.3025189325017 467.8607321363754Q664.6512841703251 467.8607321363754 660.5972302122647 463.5351147552871Q656.5431762542045 459.2094973741988 656.5431762542045 452.0906562133943Q656.5431762542045 444.97181505258976 661.7804708411724 441.40269577850796Q667.0177654281403 437.83357650442616 675.1258733442609 437.83357650442616L675.1258733442609 437.83357650442616Q679.4514907253491 437.83357650442616 683.2145838730224 438.26031902632724L683.2145838730224 438.26031902632724Q683.2145838730224 421.229412925002 686.9970744080548 405.01319709276066L686.9970744080548 405.01319709276066Q682.3804962165793 402.64671583494555 679.1023377528846 399.7177103437154Q675.8241792891899 396.7887048524852 675.8241792891899 395.10113215224L675.8241792891899 395.10113215224Q675.8241792891899 390.63973305963765 677.763918025104 390.63973305963765L677.763918025104 390.63973305963765Q680.5571418048202 390.63973305963765 683.5637368454869 392.24971621044637Q686.5703318861537 393.84030197389586 690.0618616107989 394.693787017698L690.0618616107989 394.693787017698Q698.7130963729755 369.69055471176614 713.8042637383867 362.4165344520885L713.8042637383867 362.4165344520885Q719.1191478747911 359.9142714827594 724.9771588572515 359.9142714827594L724.9771588572515 359.9142714827594Q747.0513856719532 359.9142714827594 747.0513856719532 378.47757118545667L747.0513856719532 378.47757118545667Q747.0513856719532 389.1073394582656 739.0790594673466 396.7887048524852L739.0790594673466 396.7887048524852Q728.0419460599957 407.39907573793494 705.560374110752 407.96159997135004L705.560374110752 407.96159997135004Q704.02798050938 419.6776219362708 704.02798050938 435.738658669639L704.02798050938 435.738658669639Q704.02798050938 439.65693091618533 703.058111141423 444.5450725306887L703.058111141423 444.5450725306887Q707.9462527559264 447.066732887377 712.5434335600426 449.1616507221641Q717.160011751518 451.25656855695127 723.8521103904214 451.25656855695127L723.8521103904214 451.25656855695127Q727.3436401150667 451.25656855695127 730.7769776776346 448.30816567836195Q734.1909178528432 445.37916018713173 737.19751289351 441.88763046248647Q740.2041079341767 438.3961007378412 742.5705891919919 435.467095246611Q744.9564678371661 432.53808975538084 746.4888614385383 432.53808975538084ZM724.7055954342236 373.5894295709533L724.7055954342236 373.5894295709533Q712.9701760819437 373.5894295709533 707.6552919455393 395.93521980868303L707.6552919455393 395.93521980868303Q717.7225359849331 395.10113215224 724.6280058847871 390.29058008717317Q731.5334757846409 385.46063063474725 731.5334757846409 380.57248902024384L731.5334757846409 380.57248902024384Q731.5334757846409 373.5894295709533 724.7055954342236 373.5894295709533ZM670.0825526308844 453.0605255813513L670.0825526308844 453.0605255813513Q670.2377317297575 456.97879782789767 675.5332184788028 456.97879782789767Q680.8481026152073 456.97879782789767 682.2447145050654 450.8298260350502L682.2447145050654 450.8298260350502Q678.326442258519 448.870689911777 675.8241792891899 448.870689911777L675.8241792891899 448.870689911777Q670.2377317297575 448.870689911777 670.0825526308844 453.0605255813513ZM758.767407636874 465.9209934004614L758.767407636874 465.9209934004614Q744.801288738293 465.9209934004614 744.801288738293 439.7927126276993L744.801288738293 439.7927126276993Q744.801288738293 425.5550303060903 748.2928184629383 413.9553926653244L748.2928184629383 413.9553926653244Q753.7434843108566 396.0903989075561 760.5907620486332 396.0903989075561L760.5907620486332 396.0903989075561Q764.6448160066935 396.0903989075561 767.0112972645087 401.5216673681154L767.0112972645087 401.5216673681154Q768.9704333877819 405.71150303768974 768.8346516762679 409.76555699575005L768.8346516762679 409.76555699575005Q768.8346516762679 415.3520045551825 765.4789036631366 429.4539051652775L765.4789036631366 429.4539051652775Q762.2589373615193 441.7518487509725 762.2589373615193 444.68085424220266Q762.2589373615193 447.60985973343287 763.733138800814 448.734908200263Q765.2073402401086 449.8599566670932 767.2246685254593 449.8599566670932Q769.2419968108098 449.8599566670932 772.3261814009131 447.2025145988909Q775.3909686036574 444.5450725306887 778.4751531937607 441.40269577850796Q781.5399403965048 438.26031902632724 784.1197929152705 435.602876958125Q786.6996454340361 432.94543488992275 787.6889121893522 432.94543488992275L787.6889121893522 432.94543488992275Q789.6480483126255 432.94543488992275 789.6480483126255 437.69779479291213L789.6480483126255 437.69779479291213Q789.6480483126255 447.4740780219189 779.7941755341822 456.76542656694716Q769.9403027557389 466.05677511197536 758.767407636874 465.9209934004614ZM764.5090342951796 384.7623246898182L764.5090342951796 384.7623246898182Q760.7265437601473 379.17587713038574 760.7265437601473 372.75534191451027Q760.7265437601473 366.33480669863485 762.7632694328569 362.0673814796239Q764.7805977182076 357.8193536479722 766.6039521299667 355.78262797526247Q768.4079091543667 353.7652996899119 770.7937877995411 353.7652996899119L770.7937877995411 353.7652996899119Q774.6926626587283 353.7652996899119 777.9126289603455 359.56511851029484Q781.1131978746037 365.36493733067783 781.1131978746037 369.263812189865L781.1131978746037 369.263812189865Q781.1131978746037 376.53783244954263 776.031082386509 380.65007856968043Q770.929569511055 384.7623246898182 764.5090342951796 384.7623246898182ZM814.4961015196842 397.83616376987874Q823.865039614149 397.7585742204422 828.4622204182652 401.327693494524Q833.0787986097407 404.8774153812467 833.0787986097407 411.5113218580727Q833.0787986097407 418.1452283348987 829.102334201117 422.8199986884515Q825.106472405134 427.51416642936346 819.3842431341876 429.4539051652775L819.3842431341876 429.4539051652775Q823.4382970922479 433.6437408348518 826.7164555559426 437.98875560329924Q829.9946140196374 442.31437298438755 829.9946140196374 447.066732887377L829.9946140196374 447.066732887377Q829.9946140196374 456.4162735944826 822.6042094358049 461.51778646993654Q815.1944074646133 466.6192993453904 802.0041840603978 466.6192993453904Q788.7945632688233 466.6192993453904 782.2382463414339 461.3820047584225Q775.6819294140445 456.1447101714546 775.6819294140445 449.51080369462863Q775.6819294140445 442.87689721780265 778.9600878777392 437.4262313698842Q782.2382463414339 431.97556552196573 786.0013394891071 431.97556552196573L786.0013394891071 431.97556552196573Q788.2514364227674 431.97556552196573 789.2213057907244 433.5855486727744Q790.1911751586814 435.19553182358305 792.8486172268836 442.87689721780265L792.8486172268836 442.87689721780265Q793.8378839821997 445.67012099751884 796.0685835285009 448.1723839668479L796.0685835285009 448.1723839668479Q801.2282885660322 453.8946132377943 812.4011836848971 453.8946132377943L812.4011836848971 453.8946132377943Q810.733008372011 448.59912648874905 807.0281073864152 444.75844379163925Q803.3232064008195 440.91776109452945 799.6958949646602 437.2904496583702Q796.0685835285009 433.6437408348518 793.2753597487847 429.5314947147141Q790.4821359690685 425.41924859457635 790.4821359690685 419.8328010351439L790.4821359690685 419.8328010351439Q790.4821359690685 409.76555699575005 798.0277196517741 403.4808034913886L798.0277196517741 403.4808034913886Q805.1465608125786 397.89435593195617 814.4961015196842 397.83616376987874ZM813.9335772862692 423.7316758943311L813.9335772862692 423.7316758943311Q819.5200248457016 417.73788320035675 819.5200248457016 414.09117437683835L819.5200248457016 414.09117437683835Q819.5200248457016 412.4229990639523 818.336784216794 411.10397672353076Q817.1535435878865 409.76555699575005 814.9228440415853 409.76555699575005Q812.6921444952842 409.76555699575005 810.6554188225745 410.32808122916515Q808.6380905372239 410.8906054625802 807.3772603588798 411.1621688856082L807.3772603588798 411.1621688856082Q807.3772603588798 416.4770530220126 813.9335772862692 423.7316758943311ZM844.872410124098 457.89047503377725Q843.2624269732894 454.1855740481815 842.5641210283603 449.21984288424153Q841.8658150834314 444.27350910766074 841.8658150834314 435.331313535097Q841.8658150834314 426.38911796253336 845.2215630965626 411.1621688856082L845.2215630965626 411.1621688856082L838.936809592201 411.1621688856082Q837.268634279315 411.1621688856082 837.268634279315 409.76555699575005L837.268634279315 409.76555699575005Q837.268634279315 406.4098089826188 837.8893506748075 404.2566989857542Q838.5294644576592 402.0841916015305 840.8959457154742 399.29096782181426L840.8959457154742 399.29096782181426L844.2516937286056 399.29096782181426Q846.2108298518787 399.29096782181426 848.4415293981798 399.1551861103003L848.4415293981798 399.1551861103003Q855.1336280370832 377.6434835290137 862.1166874863737 377.6434835290137L862.1166874863737 377.6434835290137Q867.7031350458062 377.77926524052765 869.9532319794665 384.7623246898182L869.9532319794665 384.7623246898182Q870.4963588255224 386.7214608130913 871.1946647704515 388.95216035939245L871.1946647704515 388.95216035939245L865.4724354995051 399.0194043987863Q875.2487187285118 399.29096782181426 877.8285712472774 399.29096782181426Q880.4278211534023 399.29096782181426 880.6217950269937 399.77590250579277Q880.8351662879442 400.28023457713044 880.8351662879442 401.25010394508746L880.8351662879442 401.25010394508746Q880.8351662879442 403.7717643017757 879.6519256590367 407.5348574494489Q878.4686850301291 411.29795059712217 876.936291428757 411.1621688856082L876.936291428757 411.1621688856082L862.970172530176 410.4638629406791Q860.0217696515866 427.51416642936346 860.0217696515866 438.6870615482283Q860.0217696515866 449.8599566670932 863.2417359532039 449.8599566670932L863.2417359532039 449.8599566670932Q865.8991780214061 449.8599566670932 872.8822374706967 445.45674973656827Q879.8652969199871 441.0535428060434 882.9300841227314 436.9994888479831Q886.0142687128347 432.94543488992275 887.9540074487487 432.94543488992275L887.9540074487487 432.94543488992275Q889.9131435720219 432.94543488992275 889.9131435720219 437.69779479291213Q889.9131435720219 442.4501546959015 886.5573955588906 447.41588585984147Q883.2210449331185 452.36221963642225 878.1195320576646 456.49386314391916Q873.0180191822107 460.6061092640569 866.8108552272857 463.26355133225917Q860.5842938850017 465.9209934004614 855.9871130808855 465.9209934004614Q851.37053488941 465.9209934004614 848.9264640821583 463.7484860162377Q846.4823932749067 461.5759786320139 844.872410124098 457.89047503377725ZM968.6859336374908 432.53808975538084L968.6859336374908 432.53808975538084Q971.2075939941791 432.53808975538084 971.2075939941791 438.95862497125626L971.2075939941791 438.95862497125626Q971.2075939941791 442.4501546959015 968.2591911155897 447.41588585984147Q965.3301856243596 452.36221963642225 960.6554152708067 456.49386314391916Q955.9806449172539 460.6061092640569 950.2584156463075 463.26355133225917Q944.516788988002 465.9209934004614 939.0855205274427 465.9209934004614L939.0855205274427 465.9209934004614Q931.6757185562511 465.9209934004614 929.1540581995628 452.9247438698373L929.1540581995628 452.9247438698373Q925.5267467634036 458.93793395117086 919.6687357809432 462.77861664828066Q913.7913274111237 466.6192993453904 903.9568520200395 466.6192993453904Q894.1029792415962 466.6192993453904 888.1091865476218 460.4703275525429Q882.0959964662883 454.32135575969545 882.2317781778023 445.5149418986457L882.2317781778023 445.5149418986457Q882.2317781778023 421.77253977105795 898.0212514881425 408.097381682864L898.0212514881425 408.097381682864Q904.713350127046 402.3751524119176 910.5131689474289 400.5517980001584Q916.3129877678119 398.7284435883992 922.7335229836873 398.7284435883992Q929.1540581995628 398.7284435883992 933.2081121576231 400.9785405220595L933.2081121576231 400.9785405220595Q935.1672482808964 396.92448656399915 937.6889086375846 396.92448656399915L937.6889086375846 396.92448656399915Q942.5770502520879 396.92448656399915 946.9608597952537 401.1725143956509Q951.3640667257786 405.4399396146618 951.3640667257786 409.203032762335L951.3640667257786 409.203032762335Q949.4049306025053 413.8196109538104 945.6418374548321 420.24014616968583L945.6418374548321 420.24014616968583Q944.516788988002 426.6606813855613 944.516788988002 438.26031902632724Q944.516788988002 449.8599566670932 947.4651918665912 449.8599566670932L947.4651918665912 449.8599566670932Q951.0925033027505 449.8599566670932 965.0586222013316 435.331313535097L965.0586222013316 435.331313535097Q967.5608851706608 432.53808975538084 968.6859336374908 432.53808975538084ZM902.7736113911319 440.91776109452945L902.7736113911319 440.91776109452945Q902.7736113911319 451.6639136914932 910.7265402083794 451.6639136914932L910.7265402083794 451.6639136914932Q919.2419932590421 451.52813197997926 924.8284408184745 442.58593640741555L924.8284408184745 442.58593640741555Q926.7875769417477 439.52114920467136 928.0484071200918 435.0403527247099L928.0484071200918 435.0403527247099Q928.0484071200918 419.40605851324284 930.841630899808 408.233163394378L930.841630899808 408.233163394378Q919.5329540694291 410.4638629406791 911.1532827302806 419.13449509021484Q902.7736113911319 427.78572985239146 902.7736113911319 440.91776109452945ZM1105.8254622666132 432.53808975538084L1105.8254622666132 432.53808975538084Q1108.3471226233014 432.53808975538084 1108.3471226233014 438.95862497125626L1108.3471226233014 438.95862497125626Q1108.3471226233014 442.4501546959015 1105.418117132071 447.41588585984147Q1102.4891116408407 452.36221963642225 1097.794943899929 456.49386314391916Q1093.120173546376 460.6061092640569 1087.3979442754298 463.26355133225917Q1081.6757150044832 465.9209934004614 1076.225049156565 465.9209934004614L1076.225049156565 465.9209934004614Q1068.5436837623456 465.9209934004614 1066.1772025045302 453.35148639173843L1066.1772025045302 453.35148639173843Q1057.7975311653818 466.6192993453904 1041.3097519101125 466.6192993453904L1041.3097519101125 466.6192993453904Q1031.2619052580776 466.6192993453904 1025.248715176744 460.4703275525429Q1019.2355250954105 454.32135575969545 1019.3907041942837 445.5149418986457L1019.3907041942837 445.5149418986457Q1019.3907041942837 421.77253977105795 1035.160780117265 408.097381682864L1035.160780117265 408.097381682864Q1046.0621118131016 398.7284435883992 1057.7975311653818 398.7284435883992L1057.7975311653818 398.7284435883992Q1063.093017914427 398.7284435883992 1066.1772025045302 399.58192863220137L1066.1772025045302 399.58192863220137L1069.3777714187886 400.4160162886444Q1075.1000006897348 373.45364785943934 1082.6455843724402 364.37567057536165L1082.6455843724402 364.37567057536165Q1085.1672447291285 361.31088337261747 1087.669507698458 361.31088337261747L1087.669507698458 361.31088337261747Q1091.723561656518 361.31088337261747 1095.2150913811633 366.8973309320499L1095.2150913811633 366.8973309320499Q1098.2992759712665 371.49451173616615 1098.2992759712665 374.85025974929744Q1098.2992759712665 378.2060077624287 1097.3100092159507 381.42597406404604Q1096.3401398479937 384.6265429783042 1094.8659384086986 387.36157459594295Q1093.4111343567633 390.0772088262226 1091.587779945004 392.6570613449883Q1089.7644255332448 395.23691386375395 1087.9604685088448 397.89435593195617L1087.9604685088448 397.89435593195617Q1083.9064145507846 412.98552329736737 1081.9472784275113 431.7040020989378L1081.9472784275113 431.7040020989378Q1081.3847541940963 436.9994888479831 1081.3847541940963 440.2194551496004L1081.3847541940963 440.2194551496004Q1081.3847541940963 449.8599566670932 1084.6047204957135 449.8599566670932L1084.6047204957135 449.8599566670932Q1088.2320319318728 449.8599566670932 1102.1981508304539 435.331313535097L1102.1981508304539 435.331313535097Q1104.719811187142 432.53808975538084 1105.8254622666132 432.53808975538084ZM1039.913140020254 440.91776109452945L1039.913140020254 440.91776109452945Q1039.913140020254 451.6639136914932 1047.8660688375016 451.6639136914932L1047.8660688375016 451.6639136914932Q1052.6184287404913 451.6639136914932 1057.448378192917 448.036602255334Q1062.258930257984 444.4092908191747 1064.9163723261863 435.8938377685121L1064.9163723261863 435.8938377685121Q1065.187935749214 423.3243307597892 1067.8453778174162 408.233163394378L1067.8453778174162 408.233163394378Q1056.6724826985514 410.4638629406791 1048.292811359403 419.13449509021484Q1039.913140020254 427.78572985239146 1039.913140020254 440.91776109452945ZM1133.9128791626486 450.26730180163514L1133.9128791626486 450.26730180163514Q1144.794813471126 450.26730180163514 1154.9978392220337 441.6160670394585L1154.9978392220337 441.6160670394585Q1158.760932369707 438.3961007378412 1161.1468110148812 435.68046650756156Q1163.5132922726966 432.94543488992275 1164.7741224510405 432.94543488992275L1164.7741224510405 432.94543488992275Q1166.7332585743138 432.94543488992275 1166.7332585743138 436.86370713646915Q1166.7332585743138 440.7819793830155 1164.6383407395265 445.5925314480823Q1162.5434229047396 450.40308351314906 1157.655281290236 455.0196617046245L1157.655281290236 455.0196617046245Q1145.628901127569 466.3283385350033 1124.6797227796974 466.3283385350033L1124.6797227796974 466.3283385350033Q1108.0755592002733 466.3283385350033 1102.0623691189398 454.32135575969545L1102.0623691189398 454.32135575969545Q1099.9674512841525 450.1315200901211 1099.9674512841525 442.31437298438755Q1099.9674512841525 434.497225878654 1103.0322384868969 426.0399649900688Q1106.116423077 417.5827041014836 1111.217935952454 411.4531296959953Q1116.300051440549 405.30415790314777 1123.0115474668114 401.87082034057994Q1129.7230434930739 398.4568801653712 1137.3268193378572 398.4568801653712Q1144.93059518264 398.4568801653712 1149.0622386901368 402.2199733130445Q1153.1744848102749 406.00246384807684 1153.1744848102749 411.9962565420512Q1153.1744848102749 418.0094466233847 1150.1678897696079 421.8501293204945Q1147.1806921163002 425.6908120176043 1142.428332213311 428.27066453636996Q1137.6759723103214 430.85051705513564 1131.8761534899386 432.8872427278454Q1126.0763346695558 434.90457101319595 1120.4898871101232 437.4262313698842L1120.4898871101232 437.4262313698842L1120.4898871101232 440.91776109452945Q1120.6450662089965 445.9416844205468 1124.6797227796974 448.036602255334Q1128.733776737758 450.1315200901211 1133.9128791626486 450.26730180163514ZM1131.5270005174739 410.8906054625802L1131.5270005174739 410.8906054625802Q1124.2723776451558 410.8906054625802 1121.4791538654395 427.78572985239146L1121.4791538654395 427.78572985239146Q1124.4081593566698 425.82659372911826 1126.9880118754354 424.2942001277462Q1129.567864394201 422.7618065263741 1131.5270005174739 421.365194636516L1131.5270005174739 421.365194636516Q1135.7168361870486 418.28101004641263 1135.8526178985621 414.38213518722546L1135.8526178985621 414.38213518722546Q1135.8526178985621 410.8906054625802 1131.5270005174739 410.8906054625802ZM1256.2522012367467 459.3452790857128L1256.2522012367467 459.3452790857128Q1256.2522012367467 467.5891687133474 1240.1911645033783 467.5891687133474L1240.1911645033783 467.5891687133474Q1236.699634778733 467.5891687133474 1236.0595209958815 464.0200494392656Q1235.4388046003892 460.4703275525429 1235.4388046003892 455.1554434161385Q1235.4388046003892 449.8599566670932 1236.2147000947543 443.7691770363231Q1236.9711982017611 437.69779479291213 1238.232028380105 430.57895363210764L1238.232028380105 430.57895363210764Q1240.5985096379204 416.8843981565546 1245.0017165684449 401.0367326841369Q1249.4049234989702 385.18906721171925 1253.7305408800585 376.53783244954263L1253.7305408800585 376.53783244954263Q1244.943524406368 377.0809592955986 1236.2728922568322 379.6802092017234Q1227.6216574946552 382.26006172048903 1223.994346058496 383.30752063788265Q1220.3476372349778 384.35497955527626 1217.9811559771624 384.35497955527626Q1215.6146747193475 384.35497955527626 1215.6146747193475 382.82258595390414L1215.6146747193475 382.82258595390414Q1215.6146747193475 380.9992315421449 1218.4078984990638 377.4301122680631Q1221.20112227878 373.8803903813404 1226.3608273163113 370.2530789451812L1226.3608273163113 370.2530789451812Q1239.4928585584494 361.31088337261747 1255.5538952918173 361.1751016611035L1255.5538952918173 361.1751016611035L1301.506305945621 361.5824467956454Q1305.269399093294 361.5824467956454 1305.269399093294 364.5114522868756L1305.269399093294 364.5114522868756Q1305.269399093294 365.36493733067783 1304.144350626464 367.5180473275424Q1303.038699546993 369.69055471176614 1302.2046118905496 372.1928176810952L1302.2046118905496 372.1928176810952Q1300.3812574787908 377.2361383944717 1294.5814386584075 377.2361383944717Q1288.7816198380247 377.2361383944717 1266.99835383371 376.38265335066956L1266.99835383371 376.38265335066956Q1266.4358296002952 382.531625143517 1264.7676542874087 392.0945371115732Q1263.0994789745232 401.67684646698854 1261.14034285125 412.98552329736737L1261.14034285125 412.98552329736737Q1256.3879829482603 441.88763046248647 1256.2522012367467 459.3452790857128ZM1371.4726821500403 432.53808975538084L1371.4726821500403 432.53808975538084Q1373.9749451193693 432.53808975538084 1373.9749451193693 438.95862497125626L1373.9749451193693 438.95862497125626Q1373.9749451193693 442.4501546959015 1371.045939628139 447.41588585984147Q1368.1169341369086 452.36221963642225 1363.4421637833557 456.49386314391916Q1358.7673934298032 460.6061092640569 1353.0257667714977 463.26355133225917Q1347.303537500551 465.9209934004614 1341.8528716526325 465.9209934004614L1341.8528716526325 465.9209934004614Q1334.4624670688004 465.9209934004614 1331.9408067121121 452.9247438698373L1331.9408067121121 452.9247438698373Q1328.3134952759528 458.93793395117086 1322.4554842934922 462.77861664828066Q1316.5780759236727 466.6192993453904 1306.743600532589 466.6192993453904Q1296.8897277541455 466.6192993453904 1290.876537672812 460.4703275525429Q1284.8827449788373 454.32135575969545 1285.0185266903518 445.5149418986457L1285.0185266903518 445.5149418986457Q1285.0185266903518 421.77253977105795 1300.8080000006917 408.097381682864L1300.8080000006917 408.097381682864Q1307.5000986395953 402.3751524119176 1313.2999174599781 400.5517980001584Q1319.099736280361 398.7284435883992 1325.5202714962365 398.7284435883992Q1331.9408067121121 398.7284435883992 1335.9948606701723 400.9785405220595L1335.9948606701723 400.9785405220595Q1337.9539967934456 396.92448656399915 1340.4562597627746 396.92448656399915L1340.4562597627746 396.92448656399915Q1345.3444013772782 396.92448656399915 1349.7476083078027 401.1725143956509Q1354.1508152383276 405.4399396146618 1354.1508152383276 409.203032762335L1354.1508152383276 409.203032762335Q1352.1916791150547 413.8196109538104 1348.4285859673814 420.24014616968583L1348.4285859673814 420.24014616968583Q1347.303537500551 426.6606813855613 1347.303537500551 438.26031902632724Q1347.303537500551 449.8599566670932 1350.2325429917814 449.8599566670932L1350.2325429917814 449.8599566670932Q1353.8792518153 449.8599566670932 1367.845370713881 435.331313535097L1367.845370713881 435.331313535097Q1370.34763368321 432.53808975538084 1371.4726821500403 432.53808975538084ZM1305.540962516322 440.91776109452945L1305.540962516322 440.91776109452945Q1305.540962516322 451.6639136914932 1313.5132887209288 451.6639136914932L1313.5132887209288 451.6639136914932Q1322.0287417715913 451.52813197997926 1327.6151893310239 442.58593640741555L1327.6151893310239 442.58593640741555Q1329.5743254542967 439.52114920467136 1330.835155632641 435.0403527247099L1330.835155632641 435.0403527247099Q1330.835155632641 419.40605851324284 1333.6283794123574 408.233163394378L1333.6283794123574 408.233163394378Q1322.3003051946193 410.4638629406791 1313.9206338554704 419.13449509021484Q1305.540962516322 427.78572985239146 1305.540962516322 440.91776109452945ZM1387.3979371718942 442.02341217400044L1387.3979371718942 442.02341217400044L1388.2320248283372 459.07371566268483Q1388.2320248283372 462.4294636758161 1384.740495103692 465.0675083566592Q1381.2489653790467 467.72495042486145 1375.2357752977132 467.72495042486145L1375.2357752977132 467.72495042486145Q1371.744245573068 467.72495042486145 1370.4252232326467 464.09763898870216Q1369.0868035048657 460.4703275525429 1369.0868035048657 453.4872681032524L1369.0868035048657 453.4872681032524Q1369.0868035048657 438.8228432597423 1370.5610049441602 430.5013640826711Q1372.0352063834553 422.199282292959 1376.3608237645435 413.68382924229644L1376.3608237645435 413.68382924229644Q1369.940288548668 407.5348574494489 1369.940288548668 403.07345835684663L1369.940288548668 403.07345835684663Q1369.940288548668 393.7045202623819 1379.9881352007028 393.7045202623819L1379.9881352007028 393.7045202623819Q1385.147840238234 393.7045202623819 1389.0661124847802 399.1551861103003L1389.0661124847802 399.1551861103003Q1391.8593362644965 402.91827925797355 1393.1201664428409 407.96159997135004L1393.1201664428409 407.96159997135004Q1395.0793025661137 408.65990591627906 1398.008308057344 408.65990591627906L1398.008308057344 408.65990591627906Q1402.0623620154042 408.65990591627906 1407.3578487644495 406.00246384807684L1407.3578487644495 406.00246384807684L1410.9851602006088 404.1791094363177Q1412.672732900854 403.3450217798746 1413.9335630791984 403.3450217798746L1413.9335630791984 403.3450217798746Q1417.9682196498993 403.3450217798746 1422.02227360796 415.2162228436685L1422.02227360796 415.2162228436685Q1420.7614434296156 420.66688869158696 1419.3066393776803 425.6908120176043Q1417.8324379383853 430.7147353436216 1415.8733018151124 437.83357650442616Q1413.9335630791984 444.97181505258976 1413.8559735297617 447.41588585984147Q1413.778383980325 449.8599566670932 1415.3301749690563 449.8599566670932L1415.3301749690563 449.8599566670932Q1417.4250928038437 449.8599566670932 1420.4898800065876 447.2025145988909Q1423.554667209332 444.5450725306887 1426.638851799435 441.40269577850796Q1429.7036390021794 438.26031902632724 1432.283491520945 435.602876958125Q1434.88274142707 432.94543488992275 1435.852610795027 432.94543488992275L1435.852610795027 432.94543488992275Q1437.8117469182998 432.94543488992275 1437.8117469182998 437.69779479291213L1437.8117469182998 437.69779479291213Q1437.8117469182998 447.3382963104049 1429.3544860297147 456.68783701751056Q1420.916622528489 466.05677511197536 1410.0152908326518 465.9209934004614L1410.0152908326518 465.9209934004614Q1403.5947556167766 465.9209934004614 1400.374789315159 460.7418909755709Q1397.174220400901 455.5821859380396 1397.0190413020277 448.1723839668479L1397.0190413020277 448.1723839668479Q1397.0190413020277 433.50795912333786 1403.5947556167766 420.37592788119986L1403.5947556167766 420.37592788119986Q1400.510571026673 421.636758059544 1396.6698883295635 421.636758059544Q1392.8292056324535 421.636758059544 1391.1610303195675 421.365194636516L1391.1610303195675 421.365194636516Q1389.9002001412236 426.6606813855613 1388.6393699628793 432.05315507140233Q1387.3979371718942 437.4262313698842 1387.3979371718942 442.02341217400044ZM1463.3581060702877 450.26730180163514L1463.3581060702877 450.26730180163514Q1474.2594377661248 450.26730180163514 1484.4624635170326 441.6160670394585L1484.4624635170326 441.6160670394585Q1488.225556664706 438.3961007378412 1490.5920379225208 435.68046650756156Q1492.977916567695 432.94543488992275 1494.2387467460394 432.94543488992275L1494.2387467460394 432.94543488992275Q1496.1784854819534 432.94543488992275 1496.1784854819534 436.86370713646915Q1496.1784854819534 440.7819793830155 1494.083567647166 445.5925314480823Q1491.9886498123792 450.40308351314906 1487.1005081978756 455.0196617046245L1487.1005081978756 455.0196617046245Q1475.0935254225678 466.3283385350033 1454.1443470746963 466.3283385350033L1454.1443470746963 466.3283385350033Q1437.520786107913 466.3283385350033 1431.5269934139387 454.32135575969545L1431.5269934139387 454.32135575969545Q1429.4320755791514 450.1315200901211 1429.4320755791514 442.31437298438755Q1429.4320755791514 434.497225878654 1432.4968627818957 426.0399649900688Q1435.581047371999 417.5827041014836 1440.6631628600935 411.4531296959953Q1445.7646757355474 405.30415790314777 1452.4761717618103 401.87082034057994Q1459.1682704007135 398.4568801653712 1466.7914436328556 398.4568801653712Q1474.3952194776389 398.4568801653712 1478.5268629851357 402.2199733130445Q1482.6391091052733 406.00246384807684 1482.6391091052733 411.9962565420512Q1482.6391091052733 418.0094466233847 1479.6325140646068 421.8501293204945Q1476.6259190239398 425.6908120176043 1471.8929565083095 428.27066453636996Q1467.1405966053203 430.85051705513564 1461.3407777849375 432.8872427278454Q1455.5409589645542 434.90457101319595 1449.954511405122 437.4262313698842L1449.954511405122 437.4262313698842L1449.954511405122 440.91776109452945Q1450.090293116636 445.9416844205468 1454.1443470746963 448.036602255334Q1458.1984010327565 450.1315200901211 1463.3581060702877 450.26730180163514ZM1460.9916248124728 410.8906054625802L1460.9916248124728 410.8906054625802Q1453.7370019401542 410.8906054625802 1450.943778160438 427.78572985239146L1450.943778160438 427.78572985239146Q1453.8727836516682 425.82659372911826 1456.4526361704338 424.2942001277462Q1459.0324886891995 422.7618065263741 1460.9916248124728 421.365194636516L1460.9916248124728 421.365194636516Q1465.181460482047 418.28101004641263 1465.317242193561 414.38213518722546L1465.317242193561 414.38213518722546Q1465.317242193561 410.8906054625802 1460.9916248124728 410.8906054625802ZM1491.8528681008652 394.4028262073109L1491.8528681008652 394.4028262073109Q1491.8528681008652 391.9005632379818 1493.6762225126245 391.9005632379818L1493.6762225126245 391.9005632379818Q1496.4694462923403 391.9005632379818 1499.3984517835706 393.08380386688935Q1502.327457274801 394.26704449579694 1505.6832052879322 394.965350440726L1505.6832052879322 394.965350440726Q1516.856100406797 371.0871666016242 1531.384743538793 363.81314634194655L1531.384743538793 363.81314634194655Q1536.4086668648106 361.31088337261747 1541.4325901908278 361.31088337261747L1541.4325901908278 361.31088337261747Q1550.8015282852925 361.4466650841315 1554.0796867489871 365.77228246521975Q1557.3578452126822 370.09789984630805 1557.3578452126822 376.9451775840846L1557.3578452126822 376.9451775840846Q1557.2220635011681 389.94142711470863 1546.184950093817 397.40942124797766Q1535.1478366864662 404.8774153812467 1519.2225816646119 405.71150303768974L1519.2225816646119 405.71150303768974Q1515.187925093911 416.4770530220126 1512.9378281602508 428.6198175088345L1512.9378281602508 428.6198175088345Q1518.388494008169 426.52489967404733 1526.9039470588318 426.52489967404733L1526.9039470588318 426.52489967404733Q1528.0289955256617 435.331313535097 1530.822219305378 439.0944066827703Q1533.6154430850943 442.87689721780265 1537.029383260303 442.87689721780265Q1540.4627208228708 442.87689721780265 1542.7710099186083 441.1893245175574Q1545.059901626987 439.52114920467136 1546.8056664893097 437.4262313698842Q1548.5514313516323 435.331313535097 1549.7540693678989 433.6437408348518Q1550.9373099968066 431.97556552196573 1552.0429610762776 431.97556552196573L1552.0429610762776 431.97556552196573Q1554.4288397214518 431.97556552196573 1554.4288397214518 436.16540119154007L1554.4288397214518 436.16540119154007Q1554.4288397214518 444.5450725306887 1550.2390040518776 450.0539305406846Q1546.0491683823034 455.5821859380396 1537.3785362327676 455.5821859380396L1537.3785362327676 455.5821859380396Q1523.8391598560875 455.5821859380396 1518.1169305851408 448.463344777235L1518.1169305851408 448.463344777235Q1521.1817177878852 479.18880635411335 1521.1817177878852 485.0468173365737L1521.1817177878852 485.0468173365737Q1521.1817177878852 495.5214065105095 1514.6254008604956 499.9828056031118L1514.6254008604956 499.9828056031118Q1509.1747350125775 503.76529613814415 1500.7174741239924 503.76529613814415Q1492.279610622766 503.76529613814415 1489.0014521590715 499.9246134410344Q1485.7038963080176 496.0839307439246 1485.7038963080176 490.7690466075201L1485.7038963080176 490.7690466075201Q1485.7038963080176 457.11457953941164 1495.3443978255104 423.0333699494021L1495.3443978255104 423.0333699494021Q1498.4285824156136 412.1514356409243 1502.327457274801 402.64671583494555L1502.327457274801 402.64671583494555Q1491.8528681008652 398.03013764347014 1491.8528681008652 394.4028262073109ZM1505.8189869994462 492.9997461538213Q1507.5065596996915 492.9997461538213 1508.9031715895494 490.41989363505564Q1510.2997834794078 487.84004111628997 1510.2997834794078 484.91103562505975L1510.2997834794078 484.91103562505975Q1510.2997834794078 475.270534107567 1507.6423414112055 455.29122512765247L1507.6423414112055 455.29122512765247Q1504.1508116865602 469.6840865481346 1502.889981508216 483.92176886974363L1502.889981508216 483.92176886974363Q1502.6184180851878 487.0059534598469 1502.6184180851878 487.704259404776L1502.6184180851878 487.704259404776Q1502.6184180851878 492.9997461538213 1505.8189869994462 492.9997461538213L1505.8189869994462 492.9997461538213ZM1540.3269391113568 375.14122055968454L1540.3269391113568 375.14122055968454Q1537.5337153316405 375.14122055968454 1532.7037658792146 380.43670730872986Q1527.8932138141477 385.7515914451343 1522.8692904881304 396.63352575361205L1522.8692904881304 396.63352575361205Q1533.052918851679 392.17212666100977 1536.2728851532966 389.80564540319466L1536.2728851532966 389.80564540319466Q1542.8292020806857 385.18906721171925 1542.8292020806857 378.7685319958438L1542.8292020806857 378.7685319958438Q1542.8292020806857 375.14122055968454 1540.3269391113568 375.14122055968454ZM1633.2016297869209 432.53808975538084L1633.2016297869209 432.53808975538084Q1635.7038927562498 432.53808975538084 1635.7038927562498 438.95862497125626L1635.7038927562498 438.95862497125626Q1635.7038927562498 442.4501546959015 1632.7748872650195 447.41588585984147Q1629.8458817737896 452.36221963642225 1625.1711114202367 456.49386314391916Q1620.476943679325 460.6061092640569 1614.7547144083783 463.26355133225917Q1609.032485137432 465.9209934004614 1603.5818192895135 465.9209934004614L1603.5818192895135 465.9209934004614Q1596.191414705681 465.9209934004614 1593.6697543489927 452.9247438698373L1593.6697543489927 452.9247438698373Q1590.0424429128334 458.93793395117086 1584.165034543014 462.77861664828066Q1578.3070235605537 466.6192993453904 1568.4531507821102 466.6192993453904Q1558.618675391026 466.6192993453904 1552.6054853096925 460.4703275525429Q1546.6116926157183 454.32135575969545 1546.7474743272323 445.5149418986457L1546.7474743272323 445.5149418986457Q1546.7474743272323 421.77253977105795 1562.5175502502134 408.097381682864L1562.5175502502134 408.097381682864Q1569.2290462764759 402.3751524119176 1575.0288650968591 400.5517980001584Q1580.828683917242 398.7284435883992 1587.249219133117 398.7284435883992Q1593.6697543489927 398.7284435883992 1597.7238083070529 400.9785405220595L1597.7238083070529 400.9785405220595Q1599.6829444303262 396.92448656399915 1602.1852073996552 396.92448656399915L1602.1852073996552 396.92448656399915Q1607.0733490141588 396.92448656399915 1611.4765559446837 401.1725143956509Q1615.8797628752086 405.4399396146618 1615.8797628752086 409.203032762335L1615.8797628752086 409.203032762335Q1613.9206267519353 413.8196109538104 1610.157533604262 420.24014616968583L1610.157533604262 420.24014616968583Q1609.032485137432 426.6606813855613 1609.032485137432 438.26031902632724Q1609.032485137432 449.8599566670932 1611.961490628662 449.8599566670932L1611.961490628662 449.8599566670932Q1615.5888020648213 449.8599566670932 1629.5549209634023 435.331313535097L1629.5549209634023 435.331313535097Q1632.0765813200906 432.53808975538084 1633.2016297869209 432.53808975538084ZM1567.2699101532025 440.91776109452945L1567.2699101532025 440.91776109452945Q1567.2699101532025 451.6639136914932 1575.2422363578094 451.6639136914932L1575.2422363578094 451.6639136914932Q1583.7576894084718 451.52813197997926 1589.3441369679044 442.58593640741555L1589.3441369679044 442.58593640741555Q1591.3032730911777 439.52114920467136 1592.5447058821628 435.0403527247099L1592.5447058821628 435.0403527247099Q1592.5447058821628 419.40605851324284 1595.3379296618787 408.233163394378L1595.3379296618787 408.233163394378Q1584.0292528315 410.4638629406791 1575.6495814923514 419.13449509021484Q1567.2699101532025 427.78572985239146 1567.2699101532025 440.91776109452945ZM1660.5713433506676 397.83616376987874Q1669.9208840577735 397.7585742204422 1674.537462249249 401.327693494524Q1679.134643053365 404.8774153812467 1679.134643053365 411.5113218580727Q1679.134643053365 418.1452283348987 1675.1581786447414 422.8199986884515Q1671.1817142361174 427.51416642936346 1665.4594849651712 429.4539051652775L1665.4594849651712 429.4539051652775Q1669.5135389232314 433.6437408348518 1672.791697386926 437.98875560329924Q1676.069855850621 442.31437298438755 1676.069855850621 447.066732887377L1676.069855850621 447.066732887377Q1676.069855850621 456.4162735944826 1668.6600538794291 461.51778646993654Q1661.269649295597 466.6192993453904 1648.0600285040223 466.6192993453904Q1634.8698050998069 466.6192993453904 1628.3134881724172 461.3820047584225Q1621.7377738576688 456.1447101714546 1621.7377738576688 449.51080369462863Q1621.7377738576688 442.87689721780265 1625.0159323213634 437.4262313698842Q1628.3134881724172 431.97556552196573 1632.0765813200906 431.97556552196573L1632.0765813200906 431.97556552196573Q1634.307280866392 431.97556552196573 1635.2965476217078 433.5855486727744Q1636.2664169896648 435.19553182358305 1638.923859057867 442.87689721780265L1638.923859057867 442.87689721780265Q1639.893728425824 445.67012099751884 1642.1244279721254 448.1723839668479L1642.1244279721254 448.1723839668479Q1647.303530397016 453.8946132377943 1658.4764255158807 453.8946132377943L1658.4764255158807 453.8946132377943Q1656.7888528156354 448.59912648874905 1653.1033492173988 444.75844379163925Q1649.3984482318033 440.91776109452945 1645.7711367956435 437.2904496583702Q1642.1244279721254 433.6437408348518 1639.3312041924091 429.5314947147141Q1636.5379804126928 425.41924859457635 1636.5379804126928 419.8328010351439L1636.5379804126928 419.8328010351439Q1636.5379804126928 409.76555699575005 1644.0835640953983 403.4808034913886L1644.0835640953983 403.4808034913886Q1651.2024052562028 397.89435593195617 1660.5713433506676 397.83616376987874ZM1660.0088191172526 423.7316758943311L1660.0088191172526 423.7316758943311Q1665.5952666766852 417.73788320035675 1665.5952666766852 414.09117437683835L1665.5952666766852 414.09117437683835Q1665.5952666766852 412.4229990639523 1664.4120260477775 411.10397672353076Q1663.2287854188698 409.76555699575005 1660.9786884852097 409.76555699575005Q1658.7479889389087 409.76555699575005 1656.730660653558 410.32808122916515Q1654.693934980848 410.8906054625802 1653.452502189863 411.1621688856082L1653.452502189863 411.1621688856082Q1653.452502189863 416.4770530220126 1660.0088191172526 423.7316758943311Z " fill="#292826" transform="matrix(0.5211017172186643,0,0,0.5211017172186644,0,76.56967077045323)"/></g></svg>